<mxfile host="www.draw.io" modified="2020-01-27T21:48:21.668Z" agent="Mozilla/5.0 (Windows NT 10.0; Win64; x64) AppleWebKit/537.36 (KHTML, like Gecko) Chrome/79.0.3945.130 Safari/537.36" etag="cwYP9fxR1nOUquSfs3Ws" version="12.5.8" type="github">
  <diagram id="OWRULbvvI68ds9wXkPGV" name="Page-1">
    <mxGraphModel dx="255" dy="523" grid="1" gridSize="10" guides="1" tooltips="1" connect="1" arrows="1" fold="1" page="1" pageScale="1" pageWidth="850" pageHeight="1100" math="0" shadow="0">
      <root>
        <mxCell id="0"/>
        <mxCell id="1" parent="0"/>
        <mxCell id="vAGCM9PmNoBAPAK3IEfj-18" value="clicking on add new contact button" style="rounded=1;whiteSpace=wrap;html=1;arcSize=40;fontColor=#000000;fillColor=#ffffc0;strokeColor=#ff0000;" vertex="1" parent="1">
          <mxGeometry x="140" y="270" width="120" height="40" as="geometry"/>
        </mxCell>
        <mxCell id="vAGCM9PmNoBAPAK3IEfj-19" value="" style="edgeStyle=orthogonalEdgeStyle;html=1;verticalAlign=bottom;endArrow=open;endSize=8;strokeColor=#ff0000;" edge="1" source="vAGCM9PmNoBAPAK3IEfj-18" parent="1" target="vAGCM9PmNoBAPAK3IEfj-21">
          <mxGeometry relative="1" as="geometry">
            <mxPoint x="200" y="370" as="targetPoint"/>
          </mxGeometry>
        </mxCell>
        <mxCell id="vAGCM9PmNoBAPAK3IEfj-21" value="" style="ellipse;html=1;shape=startState;fillColor=#000000;strokeColor=#ff0000;" vertex="1" parent="1">
          <mxGeometry x="185" y="355" width="30" height="30" as="geometry"/>
        </mxCell>
        <mxCell id="vAGCM9PmNoBAPAK3IEfj-22" value="" style="edgeStyle=orthogonalEdgeStyle;html=1;verticalAlign=bottom;endArrow=open;endSize=8;strokeColor=#ff0000;" edge="1" source="vAGCM9PmNoBAPAK3IEfj-21" parent="1">
          <mxGeometry relative="1" as="geometry">
            <mxPoint x="200" y="445" as="targetPoint"/>
          </mxGeometry>
        </mxCell>
        <mxCell id="vAGCM9PmNoBAPAK3IEfj-23" value="get contact info" style="rounded=1;whiteSpace=wrap;html=1;arcSize=40;fontColor=#000000;fillColor=#ffffc0;strokeColor=#ff0000;" vertex="1" parent="1">
          <mxGeometry x="140" y="440" width="120" height="40" as="geometry"/>
        </mxCell>
        <mxCell id="vAGCM9PmNoBAPAK3IEfj-24" value="" style="edgeStyle=orthogonalEdgeStyle;html=1;verticalAlign=bottom;endArrow=open;endSize=8;strokeColor=#ff0000;" edge="1" source="vAGCM9PmNoBAPAK3IEfj-23" parent="1">
          <mxGeometry relative="1" as="geometry">
            <mxPoint x="200" y="540" as="targetPoint"/>
          </mxGeometry>
        </mxCell>
        <mxCell id="vAGCM9PmNoBAPAK3IEfj-25" value="already existing" style="rhombus;whiteSpace=wrap;html=1;fillColor=#ffffc0;strokeColor=#ff0000;" vertex="1" parent="1">
          <mxGeometry x="160" y="540" width="80" height="40" as="geometry"/>
        </mxCell>
        <mxCell id="vAGCM9PmNoBAPAK3IEfj-26" value="yes" style="edgeStyle=orthogonalEdgeStyle;html=1;align=left;verticalAlign=bottom;endArrow=open;endSize=8;strokeColor=#ff0000;entryX=0.5;entryY=0;entryDx=0;entryDy=0;" edge="1" source="vAGCM9PmNoBAPAK3IEfj-25" parent="1" target="vAGCM9PmNoBAPAK3IEfj-33">
          <mxGeometry x="-1" relative="1" as="geometry">
            <mxPoint x="340" y="560" as="targetPoint"/>
          </mxGeometry>
        </mxCell>
        <mxCell id="vAGCM9PmNoBAPAK3IEfj-27" value="no&lt;br&gt;" style="edgeStyle=orthogonalEdgeStyle;html=1;align=left;verticalAlign=top;endArrow=open;endSize=8;strokeColor=#ff0000;" edge="1" source="vAGCM9PmNoBAPAK3IEfj-25" parent="1">
          <mxGeometry x="-1" relative="1" as="geometry">
            <mxPoint x="200" y="640" as="targetPoint"/>
          </mxGeometry>
        </mxCell>
        <mxCell id="vAGCM9PmNoBAPAK3IEfj-30" value="new contact created successfully" style="rounded=1;whiteSpace=wrap;html=1;arcSize=40;fontColor=#000000;fillColor=#ffffc0;strokeColor=#ff0000;" vertex="1" parent="1">
          <mxGeometry x="140" y="640" width="120" height="40" as="geometry"/>
        </mxCell>
        <mxCell id="vAGCM9PmNoBAPAK3IEfj-31" value="" style="edgeStyle=orthogonalEdgeStyle;html=1;verticalAlign=bottom;endArrow=open;endSize=8;strokeColor=#ff0000;" edge="1" source="vAGCM9PmNoBAPAK3IEfj-30" parent="1" target="vAGCM9PmNoBAPAK3IEfj-32">
          <mxGeometry relative="1" as="geometry">
            <mxPoint x="200" y="740" as="targetPoint"/>
          </mxGeometry>
        </mxCell>
        <mxCell id="vAGCM9PmNoBAPAK3IEfj-32" value="" style="ellipse;html=1;shape=endState;fillColor=#000000;strokeColor=#ff0000;" vertex="1" parent="1">
          <mxGeometry x="185" y="770" width="30" height="30" as="geometry"/>
        </mxCell>
        <mxCell id="vAGCM9PmNoBAPAK3IEfj-33" value="msg &quot;already existing&quot;" style="rounded=1;whiteSpace=wrap;html=1;arcSize=40;fontColor=#000000;fillColor=#ffffc0;strokeColor=#ff0000;" vertex="1" parent="1">
          <mxGeometry x="290" y="640" width="120" height="40" as="geometry"/>
        </mxCell>
        <mxCell id="vAGCM9PmNoBAPAK3IEfj-34" value="" style="edgeStyle=orthogonalEdgeStyle;html=1;verticalAlign=bottom;endArrow=open;endSize=8;strokeColor=#ff0000;entryX=1;entryY=0.5;entryDx=0;entryDy=0;" edge="1" source="vAGCM9PmNoBAPAK3IEfj-33" parent="1" target="vAGCM9PmNoBAPAK3IEfj-32">
          <mxGeometry relative="1" as="geometry">
            <mxPoint x="290" y="890" as="targetPoint"/>
            <Array as="points">
              <mxPoint x="350" y="785"/>
            </Array>
          </mxGeometry>
        </mxCell>
      </root>
    </mxGraphModel>
  </diagram>
</mxfile>
